<svg xmlns="http://www.w3.org/2000/svg" viewBox="0 0 709.18 211.7"><defs><style>.cls-1{fill:#0626aa;}.cls-2{fill:#011238;}</style></defs><g id="Capa_2" data-name="Capa 2"><g id="Capa_1-2" data-name="Capa 1"><path class="cls-1" d="M.55,149.24c-1-1.44-.35-2.92,0-4.33C8.92,107.29,17.4,69.7,25.7,32.06c.77-3.48,2.41-4.94,5.76-5.69Q87,14,142.49,1.33c3.82-.88,6,0,8.58,3,17.66,21.29,35.39,42.54,53.51,63.45,5.25,6,7.42,11.7,6.32,20-4.61,35.12-8.33,70.35-12.39,105.54-.17,1.48-.12,3-1,4.33-21.18-20.79-42.56-41.38-63.38-62.52-5-5.05-9.64-5.94-16.13-4.84-22.37,3.81-44.83,7.13-67.24,10.71C34,143.73,17.29,146.5.55,149.24Z"/><path class="cls-2" d="M.55,149.24c16.74-2.74,33.47-5.51,50.22-8.19,22.41-3.58,44.87-6.9,67.24-10.71,6.49-1.1,11.15-.21,16.13,4.84,20.82,21.14,42.2,41.73,63.38,62.52-6.25,2-12.79,2.08-19.21,2.83-31.74,3.73-63.5,7.28-95.24,11a12.5,12.5,0,0,1-10.28-2.91C49.72,189.75,26.5,171,3.36,152.22A29.43,29.43,0,0,1,.55,149.24Z"/><path class="cls-1" d="M245.55,149.24c-1-1.44-.35-2.92,0-4.33,8.4-37.62,16.88-75.21,25.18-112.85.77-3.48,2.41-4.94,5.76-5.69Q332,14,387.49,1.33c3.82-.88,6.05,0,8.58,3,17.66,21.29,35.39,42.54,53.51,63.45,5.25,6,7.42,11.7,6.32,20-4.61,35.12-8.33,70.35-12.39,105.54-.17,1.48-.12,3-1,4.33-21.18-20.79-42.56-41.38-63.38-62.52-5-5.05-9.64-5.94-16.13-4.84-22.37,3.81-44.83,7.13-67.24,10.71C279,143.73,262.29,146.5,245.55,149.24Z"/><path class="cls-2" d="M245.55,149.24c16.74-2.74,33.47-5.51,50.22-8.19,22.41-3.58,44.87-6.9,67.24-10.71,6.49-1.1,11.15-.21,16.13,4.84,20.82,21.14,42.2,41.73,63.38,62.52-6.25,2-12.79,2.08-19.21,2.83-31.74,3.73-63.5,7.28-95.24,11a12.5,12.5,0,0,1-10.28-2.91c-23.07-18.91-46.29-37.63-69.43-56.44A29.43,29.43,0,0,1,245.55,149.24Z"/><path class="cls-1" d="M498.55,148.24c-1-1.44-.35-2.92,0-4.33,8.4-37.62,16.88-75.21,25.18-112.85.77-3.48,2.41-4.94,5.76-5.69Q585,13,640.49.33c3.82-.88,6,0,8.58,3,17.66,21.29,35.39,42.54,53.51,63.45,5.25,6,7.42,11.7,6.32,20-4.61,35.12-8.33,70.35-12.39,105.54-.17,1.48-.12,3-1,4.33-21.18-20.79-42.56-41.38-63.38-62.52-5-5.05-9.64-5.94-16.13-4.84-22.37,3.81-44.83,7.13-67.24,10.71C532,142.73,515.29,145.5,498.55,148.24Z"/><path class="cls-2" d="M498.55,148.24c16.74-2.74,33.47-5.51,50.22-8.19,22.41-3.58,44.87-6.9,67.24-10.71,6.49-1.1,11.15-.21,16.13,4.84,20.82,21.14,42.2,41.73,63.38,62.52-6.25,2-12.79,2.08-19.21,2.83-31.74,3.73-63.5,7.28-95.24,11a12.5,12.5,0,0,1-10.28-2.91c-23.07-18.91-46.29-37.63-69.43-56.44A29.43,29.43,0,0,1,498.55,148.24Z"/></g></g></svg>